<?xml version="1.0" encoding="UTF-8" standalone="no"?>
<!-- Created with Inkscape (http://www.inkscape.org/) -->

<svg
   width="1300"
   height="270"
   viewBox="0 0 343.95911 71.437499"
   version="1.1"
   id="svg1"
   xml:space="preserve"
   sodipodi:docname="cuiqDATA.svg"
   inkscape:version="1.4 (86a8ad7, 2024-10-11)"
   inkscape:export-filename="..\..\cuiqAnalytics.png"
   inkscape:export-xdpi="120"
   inkscape:export-ydpi="120"
   xmlns:inkscape="http://www.inkscape.org/namespaces/inkscape"
   xmlns:sodipodi="http://sodipodi.sourceforge.net/DTD/sodipodi-0.dtd"
   xmlns="http://www.w3.org/2000/svg"
   xmlns:svg="http://www.w3.org/2000/svg"><sodipodi:namedview
     id="namedview1"
     pagecolor="#ffffff"
     bordercolor="#666666"
     borderopacity="1.0"
     inkscape:showpageshadow="2"
     inkscape:pageopacity="0.0"
     inkscape:pagecheckerboard="0"
     inkscape:deskcolor="#d1d1d1"
     showgrid="false"
     inkscape:zoom="0.32307941"
     inkscape:cx="640.70935"
     inkscape:cy="611.30482"
     inkscape:window-width="1920"
     inkscape:window-height="1009"
     inkscape:window-x="502"
     inkscape:window-y="-8"
     inkscape:window-maximized="1"
     inkscape:current-layer="g4" /><defs
     id="defs1"><rect
       x="-221.78268"
       y="435.40158"
       width="66.670868"
       height="46.261417"
       id="rect4" /><rect
       x="-307.50235"
       y="472.13858"
       width="446.28662"
       height="337.43622"
       id="rect2" /><rect
       x="65.372269"
       y="-107.60052"
       width="315.47729"
       height="58.744045"
       id="rect925" /><rect
       x="65.372269"
       y="-107.60052"
       width="315.47729"
       height="58.744045"
       id="rect925-4" /><rect
       x="65.372269"
       y="-107.60052"
       width="315.47729"
       height="58.744045"
       id="rect925-4-4" /></defs><g
     id="g4"
     transform="matrix(1.1724215,0,0,1.1724215,-72.024015,-67.001875)"><text
       xml:space="preserve"
       transform="matrix(0.20610498,0,0,0.20610498,49.867636,47.23945)"
       id="text2"
       style="font-style:normal;font-variant:normal;font-weight:normal;font-stretch:normal;font-size:144px;line-height:1.25;font-family:Webdings;-inkscape-font-specification:Webdings;text-align:center;white-space:pre;shape-inside:url(#rect2);display:inline" /><text
       xml:space="preserve"
       transform="matrix(0.20610498,0,0,0.20610498,49.867636,47.23945)"
       id="text4"
       style="font-size:16px;line-height:1.25;font-family:sans-serif;text-align:center;white-space:pre;shape-inside:url(#rect4);display:inline" /><circle
       style="fill:#fae4ff;fill-opacity:1;stroke:#8f1fab;stroke-width:3.78597;stroke-linecap:round;stroke-dasharray:none;stroke-opacity:1"
       id="path1"
       cx="91.480255"
       cy="87.614075"
       r="26.804621" /><g
       id="g891"
       transform="matrix(0.341199,0,0,0.40514511,65.519798,50.3929)"
       style="fill:#666666;fill-opacity:1"><rect
         style="fill:#666666;fill-opacity:1;stroke:none;stroke-width:1.97484;stroke-linecap:round"
         id="rect872"
         width="10.5795"
         height="10.5795"
         x="30.923967"
         y="85.650276" /><rect
         style="fill:#666666;fill-opacity:1;stroke:none;stroke-width:1.97484;stroke-linecap:round"
         id="rect872-3"
         width="10.5795"
         height="10.5795"
         x="39.834564"
         y="73.058388" /><rect
         style="fill:#666666;fill-opacity:1;stroke:none;stroke-width:1.97484;stroke-linecap:round"
         id="rect872-3-7"
         width="10.5795"
         height="10.5795"
         x="22.40769"
         y="71.66227" /><rect
         style="fill:#666666;fill-opacity:1;stroke:none;stroke-width:1.97484;stroke-linecap:round"
         id="rect872-9"
         width="10.5795"
         height="10.5795"
         x="54.404209"
         y="77.082909" /><rect
         style="fill:#666666;fill-opacity:1;stroke:none;stroke-width:1.97484;stroke-linecap:round"
         id="rect872-3-8"
         width="10.5795"
         height="10.5795"
         x="32.856331"
         y="101.50066" /><rect
         style="fill:#666666;fill-opacity:1;stroke:none;stroke-width:1.97484;stroke-linecap:round"
         id="rect872-3-7-8"
         width="10.5795"
         height="10.5795"
         x="45.727097"
         y="89.435081" /></g><g
       id="g981"
       transform="matrix(0.20272648,0,0,0.21247666,73.281595,70.594289)"
       style="fill:#8f1fab;fill-opacity:1"><path
         id="path944"
         style="fill:#8f1fab;fill-opacity:1;stroke:none;stroke-width:1.31619;stroke-linecap:round"
         d="m 64.196741,25.590523 a 54.511381,54.511381 0 0 0 -1.73295,0.02796 68.47161,68.47161 0 0 1 27.00008,54.483432 68.47161,68.47161 0 0 1 -27.00039,54.483755 54.511381,54.511381 0 0 0 1.73872,0.0276 54.511381,54.511381 0 0 0 54.511399,-54.51139 54.511381,54.511381 0 0 0 -54.511399,-54.511388 54.511381,54.511381 0 0 0 -0.006,0 z" /><path
         id="path944-2"
         style="fill:#8f1fab;fill-opacity:1;stroke:none;stroke-width:2.11667;stroke-linecap:round"
         d="m 95.514391,-7.5625361 a 87.664406,87.664406 0 0 0 -2.78691,0.04496 110.11504,110.11504 0 0 1 43.421139,87.6194561 110.11504,110.11504 0 0 1 -43.421639,87.61997 87.664406,87.664406 0 0 0 2.79619,0.0445 87.664406,87.664406 0 0 0 87.664429,-87.66442 87.664406,87.664406 0 0 0 -87.664429,-87.6644141 87.664406,87.664406 0 0 0 -0.009,0 z" /></g><path
       style="font-weight:bold;font-size:4.23333px;line-height:1.25;font-family:Leelawadee;-inkscape-font-specification:'Leelawadee, Bold';white-space:pre;fill:#666666;fill-opacity:1;stroke:#666666;stroke-width:1.1176"
       d="m 139.85512,98.603684 q -4.96579,0 -7.69292,-2.727194 -2.68641,-2.727089 -2.68641,-8.6698 0,-4.070296 1.3839,-6.634605 1.38391,-2.564307 3.82611,-3.785404 2.48288,-1.221099 5.69844,-1.221099 2.2794,0 3.94821,0.448056 1.70955,0.448058 2.97135,1.058222 l -1.79093,4.680942 q -1.42463,-0.570166 -2.68642,-0.936494 -1.22111,-0.366332 -2.44221,-0.366332 -4.72156,0 -4.72156,6.716042 0,3.337638 1.22109,4.925065 1.26181,1.587429 3.50047,1.587429 1.91307,0 3.37838,-0.488441 1.4653,-0.528822 2.84923,-1.42455 v 5.169273 q -1.38393,0.89516 -2.93064,1.26177 -1.50601,0.40672 -3.82609,0.40672 z m 32.27767,-22.6311 v 22.22398 h -4.6402 l -0.81409,-2.849186 h -0.32567 q -1.05826,1.709526 -2.93061,2.482876 -1.83164,0.77303 -3.9075,0.77303 -3.5819,0 -5.73916,-1.913089 -2.15729,-1.953751 -2.15729,-6.227595 V 75.972199 h 6.06479 V 88.95661 q 0,2.40143 0.85476,3.622528 0.85478,1.180428 2.72711,1.180428 2.76783,0 3.78542,-1.872319 1.01757,-1.913087 1.01757,-5.454273 V 75.972199 Z m 9.40243,-8.710473 q 1.34321,0 2.32007,0.650933 0.9769,0.61055 0.9769,2.320087 0,1.668868 -0.9769,2.320086 -0.97686,0.650933 -2.32007,0.650933 -1.38391,0 -2.3608,-0.650933 -0.93621,-0.650931 -0.93621,-2.320086 0,-1.709537 0.93621,-2.320087 0.97689,-0.650933 2.3608,-0.650933 z m 3.01203,8.710473 v 22.22398 h -6.06476 v -22.22398 z m 19.7004,31.992816 v -9.321066 q 0,-1.66886 0.24421,-3.337627 h -0.24421 q -0.85478,1.38389 -2.36079,2.360767 -1.50603,0.93649 -3.94822,0.93649 -3.74471,0 -6.06478,-2.889968 -2.32008,-2.930636 -2.32008,-8.588361 0,-5.698493 2.36078,-8.629129 2.36078,-2.930635 6.14619,-2.930635 2.44219,0 3.94821,0.936496 1.54671,0.936496 2.4829,2.320087 h 0.16279 l 0.52911,-2.849295 h 5.1286 V 107.96598 Z M 200.0959,93.841389 q 2.52361,0 3.50049,-1.465318 0.97687,-1.506086 1.0583,-4.477394 v -0.732659 q 0,-3.215528 -1.01759,-4.925066 -0.97689,-1.750304 -3.6226,-1.750304 -2.15727,0 -3.21556,1.750304 -1.05829,1.709538 -1.05829,4.965738 0,6.634699 4.35525,6.634699 z"
       id="text923"
       aria-label="cuiq" /><text
       xml:space="preserve"
       id="text923-1"
       style="font-style:normal;font-variant:normal;font-weight:bold;font-stretch:normal;font-size:4.23333px;line-height:1.25;font-family:Gadugi;-inkscape-font-specification:'Gadugi, Bold';font-variant-ligatures:normal;font-variant-caps:normal;font-variant-numeric:normal;font-variant-east-asian:normal;white-space:pre;shape-inside:url(#rect925-4-4);display:inline;fill:#8f1fab;fill-opacity:1;stroke:#8f1fab;stroke-width:0.290715;stroke-miterlimit:4;stroke-dasharray:none;stroke-opacity:1"
       transform="matrix(13.285965,0,0,10.995694,-650.35487,1243.4131)"><tspan
         x="65.373047"
         y="-103.70941"
         id="tspan3"><tspan
           style="font-weight:normal;font-family:Bahnschrift;-inkscape-font-specification:Bahnschrift"
           id="tspan1">DATA</tspan></tspan></text></g></svg>
